<svg id="svg2" width="529.66669" height="177" viewBox="0 0 529.66669 177" xmlns="http://www.w3.org/2000/svg" xmlns:svg="http://www.w3.org/2000/svg"><defs id="defs6"/><g id="g8" transform="matrix(1.3333333,0,0,-1.3333333,0,177)"><g id="g10" transform="scale(0.1)"><path d="m510.309 1327.01c-5.344-2.06-4.926-8.44-4.887-8.86 6.613-51.52 2.141-156.06-105.598-270.1C242.75 881.762-1.63281 672.598.0117188 429.141 1.44531 216.898 113.008 56.7188 308.766.351563c.66-.042969 5.382-1.703123 8.683 2.628907 3.293 4.30078.0 9.44923-1.097 9.62893C255.699 70.4414 172.371 167.371 182.07 366.461c9.028 161.738 125.024 288.172 198.977 369.285 95.473 104.66 298.812 354.934 138.183 587.984.157.18-3.578 5.32-8.921 3.28" style="fill:#f58113;fill-opacity:1;fill-rule:nonzero;stroke:none" id="path12"/><path d="m699.988 781.434c-1.625 5.019-8.211 4.91-8.351 4.726C614.473 777.301 460.828 707.852 448.363 575.484 435.387 437.223 537.32 364.996 560.742 340 583.402 315.809 716.117 187.609 565.41 13.7813 563.695 11.4805 562.898 7 564.828 4.44922 566.793 1.91016 570.012.519531 574.219 2.30859 664.75 34.6992 792.566 153.84 798.316 283.93c6.309 143.058-178.32 187.343-169.277 343.383 4.422 76.054 39.481 122.144 68.399 145.347.152.035 4.542 2.535 2.55 8.774" style="fill:#f58113;fill-opacity:1;fill-rule:nonzero;stroke:none" id="path14"/><path d="m1249.81 27.1992c-33.24-16.1211-72.27-24.18748-117.1-24.18748-41.81.0-84.6 12.09768-128.43 36.27738v33.2422c10.08-5.5313 18.88-10.0704 26.44-13.5899 7.57-3.5312 13.86-6.3203 18.89-8.332 22.66-8.0391 49.59-12.0781 80.84-12.0781 33.24.0 61.69 8.5468 85.38 25.6875 28.18 19.6523 42.29 46.0822 42.29 79.3402.0 28.191-10.57 51.351-31.72 69.48-5.55 4.551-13.61 9.973-24.18 16.25-10.58 6.289-23.93 13.449-40.04 21.52-19.16 9.57-36.54 18.652-52.13 27.191-15.61 8.57-29.23 16.648-40.79 24.191-41.31 26.168-61.95 64.469-61.95 114.825.0 41.308 16.62 76.8 49.86 106.535 33.73 29.187 76.79 43.797 129.18 43.797 40.29.0 81.6-10.305 123.91-30.969l-4.55-27.184c-37.28 14.075-71.76 21.137-103.49 21.137-31.23.0-58.43-9.562-81.6-28.66-22.66-19.188-33.98-41.832-33.98-68.024.0-22.671 7.8-41.558 23.41-56.652 9.55-9.578 27.94-21.156 55.16-34.754 9.56-5.047 21.26-11.203 35.12-18.531 13.84-7.289 30.34-15.981 49.48-26.031 59.41-31.75 89.15-75.578 89.15-131.469.0-63.461-29.74-109.7891-89.15-139.0118" style="fill:#ffffff;fill-opacity:1;fill-rule:nonzero;stroke:none" id="path16"/><path d="m1644.16 526.563c0-11.09.0-27.454.0-49.094.0-21.153-.26-47.864-.76-80.086-.5-32.242-.75-58.438-.75-78.574.0-19.649.0-33.239.0-40.809.0-39.27.75-127.672 2.26-265.1484-5.55.4882-11.71.8867-18.5 1.1367-6.8.2226-14.24.3515-22.29.3515-7.56.0-14.87-.1289-21.91-.3515-7.06-.25-14.11-.6485-21.15-1.1367L1563.32 278c0 43.32-.75 126.184-2.26 248.563-81.1.0-138.52-.758-172.25-2.262v33.234c-1.01.0 3.02.0 12.09.0 9.06.0 23.16-.262 42.31-.742 19.13-.52 36.5-.754 52.1-.754 16.13.0 30.48.0 43.08.0h129.94c12.59.0 26.68.0 42.31.0 16.12.0 33.74.234 52.89.754 19.12.48 32.97.742 41.54.742 9.07.0 13.1.0 12.09.0v-33.234c-34.25 1.504-91.92 2.262-173 2.262" style="fill:#ffffff;fill-opacity:1;fill-rule:nonzero;stroke:none" id="path18"/><path d="m2282.52 478.215c-39.78 42.816-86.61 64.23-140.5 64.23-53.91.0-100.75-21.414-140.54-64.23-45.82-48.86-68.74-113.813-68.74-194.914.0-82.082 22.92-146.813 68.74-194.1604 40.31-41.8203 87.15-62.6914 140.54-62.6914 53.37.0 100.21 20.8711 140.5 62.6914 45.36 47.3474 68.01 112.0784 68.01 194.1604.0 80.59-22.65 145.566-68.01 194.914zm74.06-398.1134C2301.67 26.6914 2230.15.0 2142.02.0c-88.14.0-159.92 26.6914-215.31 80.1016-55.91 53.3594-83.86 121.1174-83.86 203.1994.0 82.09 27.95 150.086 83.86 203.988 56.4 53.871 128.16 80.84 215.31 80.84 87.64.0 159.15-26.969 214.56-80.84 55.89-53.902 83.86-121.898 83.86-203.988.0-82.082-27.97-149.84-83.86-203.1994" style="fill:#ffffff;fill-opacity:1;fill-rule:nonzero;stroke:none" id="path20"/><path d="m2868.78 284.051c-14.61-33.242-31.49-72.262-50.62-117.082-19.15-44.821-41.07-96.1877-65.73-154.1174-13.1 1.4882-33.48 1.4882-61.2.0L2589.99 288.602c-12.07 32.226-26.56 70.632-43.42 115.191-16.88 44.566-36.65 95.824-59.31 153.742 5.03-.492 11.07-.742 18.13-.742 7.05.0 15.35.0 24.92.0 10.09.0 18.64.0 25.71.0 7.04.0 13.07.25 18.13.742l80.07-217.558c11.09-29.215 24.17-63.977 39.28-104.278 15.12-40.269 32.75-86.371 52.89-138.2185l105 240.9805c11.6 26.68 24.94 58.172 40.04 94.434 15.13 36.25 32.24 77.82 51.39 124.64 17.11-1.012 32.98-1.012 47.59.0L2868.78 284.051" style="fill:#ffffff;fill-opacity:1;fill-rule:nonzero;stroke:none" id="path22"/><path d="m3282.78 244.781c-11.09 29.219-24.16 64.11-39.28 104.621-15.11 40.547-32.23 86.766-51.37 138.641l-98.2-245.523c-2.03-5.032-3.67-9.469-4.92-13.231-1.27-3.758-2.41-6.93-3.4-9.437h46.07c11.6-.524 21.91-.743 30.98-.743 9.57.0 17.9.0 24.94.0 5.53.0 12.58.0 21.15.0 8.55.0 18.9.219 30.98.743h52.12zM3434.63 13.9883c-7.05.2226-15.34.3515-24.94.3515-9.56.0-17.98-.1289-25.29-.3515-7.32-.25-13.49-.6485-18.5-1.1367l-62.72 175.2774c-5.03.0-12.34.0-21.9.0-9.07.0-20.41.242-34.01.742h-59.67c-23.18.0-44.32-.133-63.47-.359-19.14-.282-36.26-.641-51.37-1.133L3004.02 12.8516c-14.62 1.0078-27.95 1.0078-40.05.0l222.88 544.6834c12.58-1.496 32.71-1.496 60.42.0l205.5-544.6834c-5.02.4882-11.08.8867-18.14 1.1367" style="fill:#ffffff;fill-opacity:1;fill-rule:nonzero;stroke:none" id="path24"/><path d="m3947.21 13.9883c-8.83.2226-18 .3515-27.57.3515-10.09.0-19.14-.1289-27.21-.3515-8.04-.25-15.35-.6485-21.9-1.1367L3711.88 249.328c-7.05-9.066-17.24-22.578-30.6-40.43-13.34-17.878-29.82-40.41-49.46-67.636-16.62-23.153-32.48-45.4339-47.6-66.8401C3569.1 53 3554.77 32.5 3541.15 12.8516c-17.63 1.0078-35.25 1.0078-52.88.0L3606.12 170.73c10.07 13.622 22.29 29.59 36.65 47.981 14.35 18.379 30.33 39.398 47.96 63.09-23.67 34.769-51.5 74.914-83.46 120.508-32 45.562-68.65 97.308-109.92 155.226 7.03-.492 14.83-.742 23.41-.742 8.56.0 17.86.0 27.95.0 10.06.0 19.13.0 27.2.0 8.56.0 16.36.25 23.43.742 29.71-44.82 56.51-85.105 80.44-120.851 23.92-35.786 45.21-67.504 63.83-95.219 6.56 8.562 15.24 20.023 26.05 34.398 10.86 14.336 24.08 32.11 39.69 53.246 16.63 23.161 32.46 45.45 47.61 66.868 15.09 21.414 29.19 41.918 42.3 61.558 18.13-1.012 35.99-1.012 53.65.0L3835.03 399.668c-7.53-10.098-16.98-22.563-28.3-37.406-11.34-14.875-24.85-32.617-40.45-53.274 1.01-2.008 2.66-4.398 4.9-7.179 2.29-2.789 4.67-6.161 7.18-10.207 21.67-31.223 48.47-69.883 80.48-115.942 31.97-46.082 69.87-100.3787 113.67-162.8084-8.07.4882-16.47.8867-25.3 1.1367" style="fill:#ffffff;fill-opacity:1;fill-rule:nonzero;stroke:none" id="path26"/></g></g></svg>